<svg width="24" height="24" viewBox="0 0 24 24" fill="none" xmlns="http://www.w3.org/2000/svg">
<path d="M9 12C9 12.5523 9.44771 13 10 13C10.5523 13 11 12.5523 11 12H10H9ZM11 8C11 7.44772 10.5523 7 10 7C9.44771 7 9 7.44772 9 8H10H11ZM13 16C13 16.5523 13.4477 17 14 17C14.5523 17 15 16.5523 15 16H14H13ZM15 8C15 7.44772 14.5523 7 14 7C13.4477 7 13 7.44772 13 8H14H15ZM17 16C17 16.5523 17.4477 17 18 17C18.5523 17 19 16.5523 19 16H18H17ZM19 10C19 9.44772 18.5523 9 18 9C17.4477 9 17 9.44772 17 10H18H19ZM1 10C1 10.5523 1.44772 11 2 11C2.55228 11 3 10.5523 3 10H2H1ZM12 19C11.4477 19 11 19.4477 11 20C11 20.5523 11.4477 21 12 21V20V19ZM7 15H6C6 15.5523 5.55228 16 5 16V17V18C6.65685 18 8 16.6569 8 15H7ZM5 17V16C4.44772 16 4 15.5523 4 15H3H2C2 16.6569 3.34315 18 5 18V17ZM3 15H4C4 14.4477 4.44772 14 5 14V13V12C3.34315 12 2 13.3431 2 15H3ZM5 13V14C5.55228 14 6 14.4477 6 15H7H8C8 13.3431 6.65685 12 5 12V13ZM8.99485 21V20H1.00515V21V22H8.99485V21ZM9 20.9949H8C8 20.4454 8.44544 20 8.99485 20V21V22C9.54995 22 10 21.55 10 20.9949H9ZM5 17V18C6.65569 18 8 19.3425 8 20.9949H9H10C10 18.2346 7.7569 16 5 16V17ZM1 20.9949H2C2 19.3425 3.34431 18 5 18V17V16C2.2431 16 0 18.2346 0 20.9949H1ZM1 20.9949H0C0 21.55 0.450017 22 1.00515 22V21V20C1.55459 20 2 20.4454 2 20.9949H1ZM10 12H11V8H10H9V12H10ZM14 16H15L15 8H14H13L13 16H14ZM18 16H19V10H18H17V16H18ZM4 4V5H20V4V3H4V4ZM22 6H21V18H22H23V6H22ZM22 18H21C21 18.5523 20.5523 19 20 19V20V21C21.6569 21 23 19.6569 23 18H22ZM20 4V5C20.5523 5 21 5.44772 21 6H22H23C23 4.34315 21.6569 3 20 3V4ZM4 4V3C2.34315 3 1 4.34315 1 6H2H3C3 5.44772 3.44772 5 4 5V4ZM2 10H3V6H2H1V10H2ZM20 20V19H12V20V21H20V20Z" fill="#111111"/>
</svg>
