<svg width="24" height="24" viewBox="0 0 24 24" fill="none" xmlns="http://www.w3.org/2000/svg">
<path d="M8 13C7.44772 13 7 13.4477 7 14C7 14.5523 7.44772 15 8 15V14V13ZM10 15C10.5523 15 11 14.5523 11 14C11 13.4477 10.5523 13 10 13V14V15ZM8 9C7.44772 9 7 9.44772 7 10C7 10.5523 7.44772 11 8 11V10V9ZM14 11C14.5523 11 15 10.5523 15 10C15 9.44772 14.5523 9 14 9V10V11ZM8 5C7.44772 5 7 5.44772 7 6C7 6.55228 7.44772 7 8 7V6V5ZM14 7C14.5523 7 15 6.55228 15 6C15 5.44772 14.5523 5 14 5V6V7ZM17 10C17 10.5523 17.4477 11 18 11C18.5523 11 19 10.5523 19 10H18H17ZM10 21C10.5523 21 11 20.5523 11 20C11 19.4477 10.5523 19 10 19V20V21ZM5.07805 19.7748L5.53903 18.8874H5.53902L5.07805 19.7748ZM4.22517 18.9219L3.33776 19.3829L3.33776 19.3829L4.22517 18.9219ZM16.9219 2.22517L16.461 3.11259L16.461 3.11259L16.9219 2.22517ZM17.7748 3.07805L16.8874 3.53902V3.53903L17.7748 3.07805ZM5.07805 2.22517L4.61708 1.33776L5.07805 2.22517ZM4.22517 3.07805L3.33776 2.61708L4.22517 3.07805ZM14.0001 16C13.4478 16 13.0001 16.4478 13.0001 17C13.0001 17.5523 13.4478 18 14.0001 18V17V16ZM20.0001 18C20.5524 18 21.0001 17.5523 21.0001 17C21.0001 16.4478 20.5524 16 20.0001 16V17V18ZM18 14C18 13.4477 17.5523 13 17 13C16.4477 13 16 13.4477 16 14H17H18ZM16 19.9999C16 20.5522 16.4477 20.9999 17 20.9999C17.5523 20.9999 18 20.5522 18 19.9999H17H16ZM8 14V15H10V14V13H8V14ZM8 10V11H14V10V9H8V10ZM8 6V7H14V6V5H8V6ZM7.22 2V3H14.78V2V1H7.22V2ZM18 5.22H17V10H18H19V5.22H18ZM10 20V19H7.22V20V21H10V20ZM4 16.78H5V5.22H4H3V16.78H4ZM7.22 20V19C6.63372 19 6.25517 18.9992 5.96722 18.9753C5.69125 18.9524 5.58924 18.9135 5.53903 18.8874L5.07805 19.7748L4.61708 20.6622C5.00034 20.8613 5.39981 20.935 5.8017 20.9684C6.19162 21.0008 6.66729 21 7.22 21V20ZM4 16.78H3C3 17.3327 2.9992 17.8084 3.03158 18.1983C3.06495 18.6002 3.13867 18.9997 3.33776 19.3829L4.22517 18.9219L5.11259 18.461C5.0865 18.4108 5.04763 18.3088 5.02472 18.0328C5.0008 17.7448 5 17.3663 5 16.78H4ZM5.07805 19.7748L5.53902 18.8874C5.35638 18.7925 5.20746 18.6436 5.11259 18.461L4.22517 18.9219L3.33776 19.3829C3.62239 19.9309 4.06915 20.3776 4.61708 20.6622L5.07805 19.7748ZM14.78 2V3C15.3663 3 15.7448 3.0008 16.0328 3.02472C16.3088 3.04763 16.4108 3.0865 16.461 3.11259L16.9219 2.22517L17.3829 1.33776C16.9997 1.13867 16.6002 1.06495 16.1983 1.03158C15.8084 0.999196 15.3327 1 14.78 1V2ZM18 5.22H19C19 4.66729 19.0008 4.19162 18.9684 3.8017C18.935 3.39982 18.8613 3.00034 18.6622 2.61708L17.7748 3.07805L16.8874 3.53903C16.9135 3.58924 16.9524 3.69125 16.9753 3.96722C16.9992 4.25517 17 4.63372 17 5.22H18ZM16.9219 2.22517L16.461 3.11259C16.6436 3.20746 16.7925 3.35638 16.8874 3.53902L17.7748 3.07805L18.6622 2.61708C18.3776 2.06915 17.9309 1.62239 17.3829 1.33776L16.9219 2.22517ZM7.22 2V1C6.66729 1 6.19162 0.999196 5.8017 1.03158C5.39981 1.06495 5.00034 1.13867 4.61708 1.33776L5.07805 2.22517L5.53903 3.11259C5.58924 3.0865 5.69125 3.04763 5.96722 3.02472C6.25517 3.0008 6.63372 3 7.22 3V2ZM4 5.22H5C5 4.63372 5.0008 4.25517 5.02472 3.96722C5.04763 3.69125 5.0865 3.58924 5.11259 3.53903L4.22517 3.07805L3.33776 2.61708C3.13867 3.00034 3.06495 3.39982 3.03158 3.8017C2.9992 4.19162 3 4.66729 3 5.22H4ZM5.07805 2.22517L4.61708 1.33776C4.06915 1.62239 3.62239 2.06915 3.33776 2.61708L4.22517 3.07805L5.11259 3.53903C5.20746 3.35638 5.35638 3.20746 5.53903 3.11259L5.07805 2.22517ZM14.0001 17V18H20.0001V17V16H14.0001V17ZM17 14H16L16 19.9999H17H18L18 14H17Z" fill="#111111"/>
</svg>
