<svg width="108" height="116" viewBox="0 0 108 116" fill="none" xmlns="http://www.w3.org/2000/svg">
<path d="M101.752 46.4648C101.752 46.4648 84.2544 56.4676 95.659 87.8478C105.787 115.716 69.484 119.503 55.3692 113.631C37.0853 106.025 31.0569 79.7266 14.9395 84.3853C-1.17782 89.0439 -8.56161 51.5434 15.2137 43.1436C44.7894 32.6947 29.751 20.0545 34.4818 8.93781C37.8771 0.959259 64.6726 -6.98512 74.7142 10.3531C83.1641 24.9433 89.4435 21.6189 94.7926 20.9916C102.507 20.0864 115.767 35.6761 101.752 46.4648Z" fill="#E7F3E7"/>
<path d="M56.6618 44.3193C56.6618 44.3193 29.0367 75.3494 28.7175 78.7905C28.7175 78.7905 29.9653 79.3433 31.357 80.9566C32.9681 82.8239 34.8987 83.5366 35.8655 83.0107C37.2584 82.2535 37.1388 81.2108 37.1388 81.2108L58.4591 88.9339C58.4591 88.9339 65.9885 86.573 81.2583 70.6562L85.3199 64.8528L56.6618 44.3193Z" fill="#DC8633"/>
<path d="M25.0047 48.8021C25.0047 48.8021 28.4048 51.2411 32.4682 48.9419L45.2482 41.6065C45.2482 41.6065 49.5996 38.3951 54.0745 41.4843C54.0745 41.4843 50.0088 51.3599 58.3849 53.0499C58.3849 53.0499 66.5595 56.7963 70.8848 60.6423C73.0596 62.5772 77.7111 65.8589 79.9228 67.712C80.5163 68.2087 81.7305 68.9512 82.3465 69.6955C83.2021 70.7292 84.8369 72.9833 82.2137 75.17C82.2137 75.17 80.4653 77.2238 76.9626 75.0623C73.707 73.0533 68.0313 68.3934 64.5911 66.2258C64.4045 66.1083 63.552 65.9346 64.7411 67.0946C66.2081 68.5247 73.0591 73.5888 73.0591 73.5888C73.0591 73.5888 75.6216 75.3682 76.2304 76.2714C76.7651 77.0636 77.5884 78.8032 76.0558 80.6925C76.0558 80.6925 73.8794 83.5611 70.1483 81.2817L61.5818 75.3016C61.5818 75.3016 59.76 74.1257 61.2248 75.8421C61.2248 75.8421 69.9188 81.9504 70.2607 82.88C71.2353 85.5295 69.3493 88.9373 65.1127 87.2922L55.2975 81.9256C55.2975 81.9256 54.4004 81.7944 55.1347 82.5101C55.1347 82.5101 64.2416 87.2099 64.8725 87.726C65.6976 88.4014 63.694 91.5843 59.5425 90.3094C53.6211 88.4917 41.6526 85.2193 35.8652 83.0108C33.8289 82.2341 29.6461 80.1585 28.0339 79.183C28.0339 79.183 21.5671 75.1133 12.7117 74.9441L19.0916 47.7504L25.0047 48.8021Z" fill="#FFD29E"/>
<path d="M34.8969 84.8436C34.8969 84.8436 36.7669 82.3733 37.9229 81.4798C40.268 79.6676 44.4994 81.4238 44.7049 83.6445C44.7049 83.6445 45.6171 85.8266 41.8343 89.0448C41.1349 89.6394 38.9126 91.0524 35.6632 88.3822C35.6632 88.3824 33.7245 86.5994 34.8969 84.8436Z" fill="#E9A97A"/>
<path d="M38.6448 62.8865C38.6448 62.8865 44.0632 67.1778 49.6724 54.4117C49.6724 54.4117 52.6569 55.4517 57.2935 52.7627L58.2595 51.2604C58.2595 51.2604 48.8425 52.2626 48.8841 52.4478C48.9257 52.633 38.6448 62.8865 38.6448 62.8865Z" fill="#DC8633"/>
<path d="M42.9545 89.6741C42.8879 88.0359 45.1845 85.0303 46.1897 83.9693C47.3741 82.7192 52.038 81.5242 52.5799 86.4892C52.5799 86.4892 52.2908 89.9689 49.7 91.9526C48.4683 92.896 43.0955 93.1475 42.9545 89.6741Z" fill="#E9A97A"/>
<path d="M53.4086 87.197C54.2022 85.9346 58.1368 85.3323 58.2247 88.9576C58.2579 90.3305 57.5428 92.5934 55.5041 93.4904C54.0221 94.1422 50.1103 93.0811 50.8539 91.4915C51.3646 90.3987 51.6144 90.0495 53.4086 87.197Z" fill="#E9A97A"/>
<path d="M27.9448 81.6073C28.2867 80.8559 28.8516 80.1353 29.9797 79.2263C30.6622 78.6769 32.5801 78.4635 33.7335 79.1837C34.5613 79.7011 36.1932 80.9133 35.8274 81.9916C35.1317 84.0403 33.9522 86.8162 31.3985 86.0141C31.3983 86.0139 26.4206 84.9576 27.9448 81.6073Z" fill="#E9A97A"/>
<path d="M23.9852 46.1265L18.7732 80.009L2.03723 76.788L9.45441 42.272L23.9852 46.1265Z" fill="#0A520A"/>
<path d="M29.7876 80.4651C29.7876 80.4651 28.9694 82.7867 30.4222 83.7622C30.4222 83.7622 32.2918 86.0058 34.6061 82.2997C34.9917 81.6821 34.1294 80.5919 32.602 80.1844C32.6021 80.1844 31.155 79.6271 29.7876 80.4651Z" fill="#E09043"/>
<path d="M37.1935 84.6404C37.1935 84.6404 38.146 82.5083 38.9551 82.1809C39.7883 81.8435 42.2915 81.7889 43.3433 84.2479C43.5242 84.6707 42.8709 85.5538 42.5768 86.0218C42.0347 86.8861 40.6352 88.1796 39.0081 87.2912C39.008 87.2909 36.9265 86.5395 37.1935 84.6404Z" fill="#E09043"/>
<path d="M45.7117 86.4643C45.9378 85.8449 46.8149 84.7161 47.6134 84.6364C48.9266 84.5057 51.9593 85.4795 51.1579 87.4214C51.1579 87.4214 50.4698 89.0678 48.9933 89.4517C48.9933 89.4517 46.4327 90.3699 45.4854 87.9869C45.3429 87.6292 45.5807 86.8258 45.7117 86.4643Z" fill="#E09043"/>
<path d="M52.6648 90.1881C53.043 91.1312 54.6646 92.106 55.6544 91.2073C56.0557 90.8433 56.8823 89.6258 56.9275 89.0866C57.0032 88.1739 55.2077 86.2475 53.6347 88.0416C53.2635 88.4651 52.4554 89.6653 52.6648 90.1881Z" fill="#E09043"/>
<path d="M60.3642 40.6047C60.3642 40.6047 54.8879 38.8776 50.699 43.0832L43.6778 47.3822C43.6778 47.3822 40.6832 48.3751 39.7568 52.3818L36.5675 59.0132C36.5675 59.0132 33.9907 63.5634 41.5052 62.9403C41.5052 62.9403 45.806 61.1226 49.2207 54.2164L49.1967 53.3348C49.1967 53.3348 49.6833 54.4224 52.1652 53.9857C52.1652 53.9857 54.7284 53.0985 58.2735 51.9245C58.2735 51.9245 58.8489 52.6247 62.2545 54.4949C62.2545 54.4949 70.5805 58.8515 72.5163 61.174L82.4911 68.7659C82.4911 68.7659 84.0396 68.1474 87.8927 62.1554L96.4898 59.0995L87.4705 34.4928C87.4705 34.4928 73.7385 39.8706 69.7063 40.2727L60.3642 40.6047Z" fill="#E9A97A"/>
<path d="M81.4689 35.0912L93.3491 63.0586L105.992 58.1519L93.5725 29.8438L81.4689 35.0912Z" fill="#212121"/>
<path d="M38.1511 55.7198C38.1511 55.7198 41.1691 54.5774 42.059 56.6667C42.059 56.6667 41.1421 60.3917 40.1105 61.2174C39.313 61.8567 36.6654 62.1183 36.1448 60.7553C36.1448 60.7553 35.8172 59.3511 38.1511 55.7198Z" fill="#E09043"/>
<path d="M65.3637 56.2086C65.3637 56.2086 70.978 58.5149 76.6492 53.9717C76.6492 53.9717 72.7534 59.2217 67.5094 57.4761L65.3637 56.2086Z" fill="#DC8633"/>
<path d="M13.1048 73.4826C13.1415 73.8496 13.0685 74.2193 12.895 74.5449C12.7216 74.8704 12.4555 75.1372 12.1304 75.3115C11.8053 75.4858 11.4358 75.5598 11.0687 75.5242C10.7015 75.4885 10.3532 75.3447 10.0678 75.111C9.78232 74.8774 9.57259 74.5643 9.46508 74.2115C9.35758 73.8586 9.35713 73.4818 9.4638 73.1287C9.57047 72.7755 9.77946 72.462 10.0643 72.2276C10.3492 71.9933 10.6972 71.8487 11.0643 71.8122C11.5563 71.7632 12.0477 71.9116 12.4304 72.2249C12.813 72.5381 13.0556 72.9905 13.1048 73.4826Z" fill="white"/>
<path d="M99.8713 55.4295C99.9079 55.7964 99.8348 56.166 99.6613 56.4914C99.4878 56.8169 99.2217 57.0836 98.8967 57.2578C98.5717 57.432 98.2022 57.5059 97.8352 57.4702C97.4681 57.4345 97.1199 57.2908 96.8346 57.0571C96.5492 56.8235 96.3395 56.5106 96.232 56.1578C96.1246 55.805 96.1241 55.4283 96.2307 55.0752C96.3373 54.7222 96.5462 54.4087 96.831 54.1744C97.1158 53.9401 97.4637 53.7955 97.8306 53.7588C98.0743 53.7345 98.3204 53.7585 98.5549 53.8293C98.7893 53.9001 99.0075 54.0163 99.197 54.1715C99.3865 54.3266 99.5436 54.5176 99.6593 54.7334C99.775 54.9493 99.847 55.1858 99.8713 55.4295Z" fill="white"/>
</svg>
