<svg width="233" height="250" viewBox="0 0 233 250" fill="none" xmlns="http://www.w3.org/2000/svg">
<path d="M219.293 100.14C219.293 100.14 181.583 121.697 206.162 189.327C227.99 249.389 149.75 257.55 119.33 244.895C79.9253 228.502 66.933 171.825 32.1973 181.865C-2.53839 191.905 -18.4517 111.085 32.7882 92.9819C96.5289 70.4627 64.1186 43.221 74.3141 19.2625C81.6317 2.06737 139.381 -15.0541 161.022 22.3128C179.233 53.7571 192.766 46.5926 204.294 45.2405C220.92 43.2897 249.497 76.8881 219.293 100.14Z" fill="#E7F3E7"/>
<path d="M122.116 95.5157C122.116 95.5157 62.5791 162.391 61.8911 169.807C61.8911 169.807 64.5804 170.998 67.5799 174.475C71.0519 178.5 75.2128 180.036 77.2964 178.902C80.2983 177.271 80.0405 175.023 80.0405 175.023L125.989 191.668C125.989 191.668 142.217 186.58 175.126 152.276L183.879 139.769L122.116 95.5157Z" fill="#DC8633"/>
<path d="M53.8896 105.177C53.8896 105.177 61.2173 110.433 69.9747 105.478L97.5178 89.6692C97.5178 89.6692 106.896 82.7481 116.54 89.4057C116.54 89.4057 107.778 110.689 125.83 114.332C125.83 114.332 143.447 122.406 152.769 130.694C157.456 134.865 167.481 141.937 172.248 145.931C173.526 147.001 176.143 148.602 177.471 150.206C179.315 152.434 182.838 157.291 177.185 162.004C177.185 162.004 173.417 166.431 165.868 161.772C158.851 157.442 146.619 147.4 139.205 142.728C138.803 142.475 136.966 142.1 139.528 144.6C142.69 147.682 157.455 158.596 157.455 158.596C157.455 158.596 162.978 162.431 164.29 164.378C165.442 166.085 167.216 169.834 163.913 173.906C163.913 173.906 159.223 180.088 151.182 175.176L132.719 162.288C132.719 162.288 128.793 159.753 131.95 163.453C131.95 163.453 150.687 176.617 151.424 178.62C153.524 184.331 149.46 191.675 140.329 188.13L119.176 176.564C119.176 176.564 117.242 176.281 118.825 177.823C118.825 177.823 138.452 187.952 139.811 189.065C141.59 190.52 137.272 197.38 128.324 194.632C115.563 190.715 89.7686 183.662 77.2957 178.902C72.9072 177.228 63.8925 172.755 60.418 170.653C60.418 170.653 46.4809 161.882 27.3959 161.517L41.1458 102.91L53.8896 105.177Z" fill="#FFD29E"/>
<path d="M75.2087 182.853C75.2087 182.853 79.2389 177.529 81.7303 175.603C86.7845 171.698 95.9038 175.482 96.3468 180.268C96.3468 180.268 98.3128 184.971 90.1601 191.907C88.6528 193.188 83.8634 196.234 76.8604 190.479C76.8603 190.479 72.6822 186.637 75.2087 182.853Z" fill="#E9A97A"/>
<path d="M83.2861 135.531C83.2861 135.531 94.9639 144.78 107.052 117.267C107.052 117.267 113.485 119.508 123.477 113.713L125.559 110.475C125.559 110.475 105.264 112.635 105.354 113.034C105.443 113.433 83.2861 135.531 83.2861 135.531Z" fill="#DC8633"/>
<path d="M92.5743 193.263C92.4308 189.733 97.3804 183.255 99.5467 180.968C102.099 178.274 112.151 175.699 113.319 186.399C113.319 186.399 112.696 193.899 107.112 198.174C104.458 200.207 92.8782 200.749 92.5743 193.263Z" fill="#E9A97A"/>
<path d="M115.105 187.925C116.815 185.204 125.295 183.906 125.484 191.719C125.556 194.678 124.015 199.555 119.621 201.488C116.427 202.893 107.996 200.606 109.599 197.18C110.7 194.825 111.238 194.072 115.105 187.925Z" fill="#E9A97A"/>
<path d="M60.2259 175.878C60.9627 174.258 62.1802 172.705 64.6114 170.746C66.0824 169.562 70.2158 169.102 72.7015 170.655C74.4856 171.77 78.0026 174.382 77.2143 176.706C75.7149 181.121 73.1728 187.104 67.6692 185.375C67.6689 185.375 56.9409 183.098 60.2259 175.878Z" fill="#E9A97A"/>
<path d="M51.6924 99.4107L40.4595 172.433L4.39062 165.491L20.3759 91.1035L51.6924 99.4107Z" fill="#0A520A"/>
<path d="M64.1975 173.416C64.1975 173.416 62.434 178.42 65.5651 180.522C65.5651 180.522 69.5944 185.357 74.582 177.37C75.4132 176.039 73.5548 173.69 70.263 172.811C70.2631 172.811 67.1444 171.61 64.1975 173.416Z" fill="#E09043"/>
<path d="M80.1584 182.415C80.1584 182.415 82.2113 177.819 83.955 177.114C85.7507 176.387 91.1455 176.269 93.4123 181.569C93.8022 182.48 92.3941 184.383 91.7603 185.392C90.5921 187.254 87.5758 190.042 84.0692 188.128C84.0689 188.127 79.5829 186.507 80.1584 182.415Z" fill="#E09043"/>
<path d="M98.5167 186.345C99.0038 185.01 100.894 182.578 102.615 182.406C105.445 182.124 111.981 184.223 110.254 188.408C110.254 188.408 108.771 191.956 105.589 192.784C105.589 192.784 100.07 194.763 98.029 189.627C97.7219 188.856 98.2342 187.124 98.5167 186.345Z" fill="#E09043"/>
<path d="M113.502 194.371C114.317 196.403 117.812 198.504 119.945 196.567C120.81 195.783 122.591 193.159 122.689 191.997C122.852 190.03 118.982 185.878 115.592 189.745C114.792 190.657 113.05 193.244 113.502 194.371Z" fill="#E09043"/>
<path d="M130.095 87.51C130.095 87.51 118.293 83.7879 109.265 92.8518L94.1333 102.117C94.1333 102.117 87.6794 104.257 85.6828 112.892L78.8092 127.184C78.8092 127.184 73.2559 136.99 89.4508 135.647C89.4508 135.647 98.7198 131.73 106.079 116.846L106.027 114.946C106.027 114.946 107.076 117.29 112.425 116.348C112.425 116.348 117.949 114.436 125.59 111.906C125.59 111.906 126.83 113.415 134.169 117.446C134.169 117.446 152.113 126.835 156.285 131.841L177.783 148.202C177.783 148.202 181.12 146.869 189.424 133.956L207.952 127.37L188.514 74.3379C188.514 74.3379 158.919 85.928 150.229 86.7945L130.095 87.51Z" fill="#E9A97A"/>
<path d="M175.58 75.6274L201.183 135.902L228.431 125.327L201.665 64.3184L175.58 75.6274Z" fill="#212121"/>
<path d="M82.2221 120.086C82.2221 120.086 88.7265 117.624 90.6444 122.127C90.6444 122.127 88.6684 130.155 86.4451 131.934C84.7263 133.312 79.0203 133.876 77.8982 130.938C77.8982 130.938 77.1923 127.912 82.2221 120.086Z" fill="#E09043"/>
<path d="M140.87 121.139C140.87 121.139 152.97 126.11 165.192 116.318C165.192 116.318 156.796 127.633 145.494 123.871L140.87 121.139Z" fill="#DC8633"/>
<path d="M28.2432 158.368C28.3223 159.159 28.1649 159.955 27.7911 160.657C27.4173 161.359 26.8438 161.934 26.1432 162.309C25.4425 162.685 24.6462 162.844 23.855 162.768C23.0637 162.691 22.313 162.381 21.6978 161.877C21.0827 161.374 20.6307 160.699 20.399 159.938C20.1673 159.178 20.1663 158.366 20.3962 157.605C20.6261 156.844 21.0765 156.168 21.6905 155.663C22.3044 155.158 23.0544 154.846 23.8455 154.768C24.906 154.662 25.965 154.982 26.7897 155.657C27.6144 156.332 28.1372 157.307 28.2432 158.368Z" fill="white"/>
<path d="M215.24 119.46C215.319 120.251 215.161 121.048 214.787 121.749C214.413 122.45 213.84 123.025 213.139 123.401C212.439 123.776 211.643 123.935 210.852 123.858C210.061 123.781 209.31 123.472 208.695 122.968C208.08 122.465 207.628 121.79 207.397 121.03C207.165 120.27 207.164 119.458 207.394 118.697C207.624 117.936 208.074 117.26 208.688 116.755C209.301 116.25 210.051 115.939 210.842 115.86C211.367 115.807 211.897 115.859 212.403 116.011C212.908 116.164 213.378 116.415 213.787 116.749C214.195 117.083 214.534 117.495 214.783 117.96C215.032 118.425 215.188 118.935 215.24 119.46Z" fill="white"/>
</svg>
